<?xml version="1.0" encoding="iso-8859-1"?>
<svg version="1.1" id="Capa_1" xmlns="http://www.w3.org/2000/svg" xmlns:xlink="http://www.w3.org/1999/xlink" x="0px" y="0px"
	 viewBox="0 0 480 480" style="enable-background:new 0 0 480 480;" xml:space="preserve">
	 <!-- <circle style="fill:#46BEDB;opacity:0.5;stroke:#000;stroke-width:10px" cx='240' cy='240' r='230' stroke='#000' /> -->
<path style="fill:#29ABE2;" d="M280,313.272C384.624,320,464,352.696,464,392c0,44.184-100.288,80-224,80S16,436.184,16,392
	c0-39.304,79.376-72,184-78.728"/>
<path style="fill:#ED1C24;" d="M139.584,216.36L240,360l100.416-143.64c17.895-25.436,27.526-55.764,27.584-86.864
	c-0.633-49.67-31.94-93.763-78.624-110.736l-5.856-2.232c-28.171-10.705-59.175-11.352-87.768-1.832
	C146.481,30.231,112.721,75.606,112,127.264v2.232C112.058,160.596,121.689,190.924,139.584,216.36L139.584,216.36z"/>
<circle style="fill:#F2F2F2;" cx="240" cy="127.2" r="68.2"/>
<path d="M316.2,127.2c0-42.084-34.116-76.2-76.2-76.2s-76.2,34.116-76.2,76.2s34.116,76.2,76.2,76.2
	C282.064,203.351,316.151,169.264,316.2,127.2z M179.8,127.2c0-33.248,26.952-60.2,60.2-60.2c33.248,0,60.2,26.952,60.2,60.2
	s-26.952,60.2-60.2,60.2C206.767,187.364,179.835,160.433,179.8,127.2L179.8,127.2z"/>
<path d="M240,480c130.096,0,232-38.656,232-88c0-42.864-75.448-77.912-184.352-86.192l59.328-84.856
	c18.861-26.767,28.997-58.704,29.024-91.448c-0.45-53.049-33.873-100.213-83.776-118.216L286.4,9.056
	c-29.898-11.364-62.804-12.053-93.152-1.952c-52.525,16.65-88.484,65.065-89.248,120.16v2.24
	c0.026,32.742,10.162,64.677,29.024,91.44l59.328,84.864C83.448,314.088,8,349.136,8,392C8,441.344,109.904,480,240,480L240,480z
	 M120,129.504v-2.24c0.767-48.2,32.309-90.494,78.288-104.976c26.838-8.942,55.941-8.337,82.384,1.712l5.848,2.232
	C330.201,41.9,359.516,83.1,360,129.504c-0.031,29.464-9.159,58.199-26.136,82.28L240,346.04l-93.864-134.256
	C129.159,187.703,120.031,158.967,120,129.504L120,129.504z M200.512,321.256c0.767-0.087,1.517-0.289,2.224-0.6l30.712,43.928
	c2.535,3.619,7.524,4.497,11.142,1.962c0.763-0.535,1.427-1.199,1.962-1.962l30.712-43.928c0.707,0.311,1.457,0.513,2.224,0.6
	C389.976,328.368,456,362.816,456,392c0,34.056-88.712,72-216,72S24,426.056,24,392C24,362.816,90.024,328.368,200.512,321.256z"/>
</svg>
